<?xml version="1.0" encoding="utf-8" standalone="no"?>
<!DOCTYPE svg PUBLIC "-//W3C//DTD SVG 1.1//EN"
  "http://www.w3.org/Graphics/SVG/1.1/DTD/svg11.dtd">
<svg xmlns:xlink="http://www.w3.org/1999/xlink" width="432pt" height="288pt" viewBox="0 0 432 288" xmlns="http://www.w3.org/2000/svg" version="1.1">
 <metadata>
  <rdf:RDF xmlns:dc="http://purl.org/dc/elements/1.1/" xmlns:cc="http://creativecommons.org/ns#" xmlns:rdf="http://www.w3.org/1999/02/22-rdf-syntax-ns#">
   <cc:Work>
    <dc:type rdf:resource="http://purl.org/dc/dcmitype/StillImage"/>
    <dc:date>2023-09-19T21:45:51.231564</dc:date>
    <dc:format>image/svg+xml</dc:format>
    <dc:creator>
     <cc:Agent>
      <dc:title>Matplotlib v3.7.2, https://matplotlib.org/</dc:title>
     </cc:Agent>
    </dc:creator>
   </cc:Work>
  </rdf:RDF>
 </metadata>
 <defs>
  <style type="text/css">*{stroke-linejoin: round; stroke-linecap: butt}</style>
 </defs>
 <g id="figure_1">
  <g id="patch_1">
   <path d="M 0 288 
L 432 288 
L 432 0 
L 0 0 
z
" style="fill: #ffffff"/>
  </g>
  <g id="axes_1">
   <g id="patch_2">
    <path d="M 46.64 108.97 
L 204.787455 108.97 
L 204.787455 10.8 
L 46.64 10.8 
z
" style="fill: #ffffff"/>
   </g>
   <g id="PathCollection_1">
    <defs>
     <path id="m8b205b2266" d="M 0 2.236068 
C 0.593012 2.236068 1.161816 2.000462 1.581139 1.581139 
C 2.000462 1.161816 2.236068 0.593012 2.236068 0 
C 2.236068 -0.593012 2.000462 -1.161816 1.581139 -1.581139 
C 1.161816 -2.000462 0.593012 -2.236068 0 -2.236068 
C -0.593012 -2.236068 -1.161816 -2.000462 -1.581139 -1.581139 
C -2.000462 -1.161816 -2.236068 -0.593012 -2.236068 0 
C -2.236068 0.593012 -2.000462 1.161816 -1.581139 1.581139 
C -1.161816 2.000462 -0.593012 2.236068 0 2.236068 
z
" style="stroke: #1f77b4"/>
    </defs>
    <g clip-path="url(#pf353417322)">
     <use xlink:href="#m8b205b2266" x="181.994113" y="24.620353" style="fill: #1f77b4; stroke: #1f77b4"/>
     <use xlink:href="#m8b205b2266" x="81.157383" y="49.859393" style="fill: #1f77b4; stroke: #1f77b4"/>
     <use xlink:href="#m8b205b2266" x="83.569107" y="39.152688" style="fill: #1f77b4; stroke: #1f77b4"/>
     <use xlink:href="#m8b205b2266" x="153.475841" y="15.796357" style="fill: #1f77b4; stroke: #1f77b4"/>
     <use xlink:href="#m8b205b2266" x="86.607764" y="22.704969" style="fill: #1f77b4; stroke: #1f77b4"/>
     <use xlink:href="#m8b205b2266" x="183.881398" y="75.348992" style="fill: #1f77b4; stroke: #1f77b4"/>
     <use xlink:href="#m8b205b2266" x="110.311905" y="39.682851" style="fill: #1f77b4; stroke: #1f77b4"/>
     <use xlink:href="#m8b205b2266" x="99.892885" y="60.065233" style="fill: #1f77b4; stroke: #1f77b4"/>
     <use xlink:href="#m8b205b2266" x="183.236001" y="59.174427" style="fill: #1f77b4; stroke: #1f77b4"/>
     <use xlink:href="#m8b205b2266" x="169.427842" y="49.666176" style="fill: #1f77b4; stroke: #1f77b4"/>
     <use xlink:href="#m8b205b2266" x="181.507495" y="54.598806" style="fill: #1f77b4; stroke: #1f77b4"/>
     <use xlink:href="#m8b205b2266" x="151.498623" y="30.352847" style="fill: #1f77b4; stroke: #1f77b4"/>
     <use xlink:href="#m8b205b2266" x="96.342095" y="43.181257" style="fill: #1f77b4; stroke: #1f77b4"/>
     <use xlink:href="#m8b205b2266" x="182.834108" y="55.012739" style="fill: #1f77b4; stroke: #1f77b4"/>
     <use xlink:href="#m8b205b2266" x="114.85657" y="49.050608" style="fill: #1f77b4; stroke: #1f77b4"/>
     <use xlink:href="#m8b205b2266" x="148.265632" y="51.089667" style="fill: #1f77b4; stroke: #1f77b4"/>
     <use xlink:href="#m8b205b2266" x="152.784703" y="29.61624" style="fill: #1f77b4; stroke: #1f77b4"/>
     <use xlink:href="#m8b205b2266" x="118.383092" y="61.060828" style="fill: #1f77b4; stroke: #1f77b4"/>
     <use xlink:href="#m8b205b2266" x="142.386383" y="51.470995" style="fill: #1f77b4; stroke: #1f77b4"/>
     <use xlink:href="#m8b205b2266" x="152.003039" y="73.069492" style="fill: #1f77b4; stroke: #1f77b4"/>
     <use xlink:href="#m8b205b2266" x="134.969204" y="104.507727" style="fill: #1f77b4; stroke: #1f77b4"/>
     <use xlink:href="#m8b205b2266" x="88.908647" y="45.169061" style="fill: #1f77b4; stroke: #1f77b4"/>
     <use xlink:href="#m8b205b2266" x="132.528975" y="41.267856" style="fill: #1f77b4; stroke: #1f77b4"/>
     <use xlink:href="#m8b205b2266" x="164.617478" y="70.998201" style="fill: #1f77b4; stroke: #1f77b4"/>
     <use xlink:href="#m8b205b2266" x="101.543488" y="15.262273" style="fill: #1f77b4; stroke: #1f77b4"/>
     <use xlink:href="#m8b205b2266" x="118.550863" y="84.177558" style="fill: #1f77b4; stroke: #1f77b4"/>
     <use xlink:href="#m8b205b2266" x="109.639811" y="56.417583" style="fill: #1f77b4; stroke: #1f77b4"/>
     <use xlink:href="#m8b205b2266" x="180.936501" y="60.728209" style="fill: #1f77b4; stroke: #1f77b4"/>
     <use xlink:href="#m8b205b2266" x="144.203286" y="28.90009" style="fill: #1f77b4; stroke: #1f77b4"/>
     <use xlink:href="#m8b205b2266" x="135.937847" y="30.073692" style="fill: #1f77b4; stroke: #1f77b4"/>
     <use xlink:href="#m8b205b2266" x="99.191869" y="54.397029" style="fill: #1f77b4; stroke: #1f77b4"/>
     <use xlink:href="#m8b205b2266" x="140.050932" y="50.266408" style="fill: #1f77b4; stroke: #1f77b4"/>
     <use xlink:href="#m8b205b2266" x="102.175028" y="73.69293" style="fill: #1f77b4; stroke: #1f77b4"/>
     <use xlink:href="#m8b205b2266" x="124.214391" y="93.919222" style="fill: #1f77b4; stroke: #1f77b4"/>
     <use xlink:href="#m8b205b2266" x="103.376195" y="63.702505" style="fill: #1f77b4; stroke: #1f77b4"/>
     <use xlink:href="#m8b205b2266" x="144.332449" y="54.371094" style="fill: #1f77b4; stroke: #1f77b4"/>
     <use xlink:href="#m8b205b2266" x="141.216365" y="34.497676" style="fill: #1f77b4; stroke: #1f77b4"/>
     <use xlink:href="#m8b205b2266" x="116.719952" y="35.014169" style="fill: #1f77b4; stroke: #1f77b4"/>
     <use xlink:href="#m8b205b2266" x="135.580333" y="64.431878" style="fill: #1f77b4; stroke: #1f77b4"/>
     <use xlink:href="#m8b205b2266" x="89.106496" y="62.858498" style="fill: #1f77b4; stroke: #1f77b4"/>
     <use xlink:href="#m8b205b2266" x="76.678792" y="76.667946" style="fill: #1f77b4; stroke: #1f77b4"/>
     <use xlink:href="#m8b205b2266" x="136.934379" y="83.541949" style="fill: #1f77b4; stroke: #1f77b4"/>
     <use xlink:href="#m8b205b2266" x="128.42284" y="88.839081" style="fill: #1f77b4; stroke: #1f77b4"/>
     <use xlink:href="#m8b205b2266" x="143.040297" y="21.165021" style="fill: #1f77b4; stroke: #1f77b4"/>
     <use xlink:href="#m8b205b2266" x="197.598934" y="66.695523" style="fill: #1f77b4; stroke: #1f77b4"/>
     <use xlink:href="#m8b205b2266" x="152.698174" y="65.370966" style="fill: #1f77b4; stroke: #1f77b4"/>
     <use xlink:href="#m8b205b2266" x="94.731766" y="80.447476" style="fill: #1f77b4; stroke: #1f77b4"/>
     <use xlink:href="#m8b205b2266" x="158.08305" y="42.876799" style="fill: #1f77b4; stroke: #1f77b4"/>
     <use xlink:href="#m8b205b2266" x="82.151473" y="87.12972" style="fill: #1f77b4; stroke: #1f77b4"/>
     <use xlink:href="#m8b205b2266" x="108.814898" y="61.201134" style="fill: #1f77b4; stroke: #1f77b4"/>
     <use xlink:href="#m8b205b2266" x="121.091137" y="73.835064" style="fill: #1f77b4; stroke: #1f77b4"/>
     <use xlink:href="#m8b205b2266" x="176.694404" y="50.104673" style="fill: #1f77b4; stroke: #1f77b4"/>
     <use xlink:href="#m8b205b2266" x="99.977152" y="66.716859" style="fill: #1f77b4; stroke: #1f77b4"/>
     <use xlink:href="#m8b205b2266" x="97.427802" y="79.112087" style="fill: #1f77b4; stroke: #1f77b4"/>
     <use xlink:href="#m8b205b2266" x="120.148254" y="57.785865" style="fill: #1f77b4; stroke: #1f77b4"/>
     <use xlink:href="#m8b205b2266" x="102.513794" y="49.338018" style="fill: #1f77b4; stroke: #1f77b4"/>
     <use xlink:href="#m8b205b2266" x="158.383279" y="56.033441" style="fill: #1f77b4; stroke: #1f77b4"/>
     <use xlink:href="#m8b205b2266" x="89.516284" y="51.667072" style="fill: #1f77b4; stroke: #1f77b4"/>
     <use xlink:href="#m8b205b2266" x="87.408449" y="69.002555" style="fill: #1f77b4; stroke: #1f77b4"/>
     <use xlink:href="#m8b205b2266" x="109.55659" y="63.976918" style="fill: #1f77b4; stroke: #1f77b4"/>
     <use xlink:href="#m8b205b2266" x="107.67736" y="69.70831" style="fill: #1f77b4; stroke: #1f77b4"/>
     <use xlink:href="#m8b205b2266" x="183.441676" y="63.917923" style="fill: #1f77b4; stroke: #1f77b4"/>
     <use xlink:href="#m8b205b2266" x="152.852393" y="72.311718" style="fill: #1f77b4; stroke: #1f77b4"/>
     <use xlink:href="#m8b205b2266" x="125.953434" y="89.209413" style="fill: #1f77b4; stroke: #1f77b4"/>
     <use xlink:href="#m8b205b2266" x="84.975102" y="53.981058" style="fill: #1f77b4; stroke: #1f77b4"/>
     <use xlink:href="#m8b205b2266" x="149.573537" y="64.699353" style="fill: #1f77b4; stroke: #1f77b4"/>
     <use xlink:href="#m8b205b2266" x="92.004226" y="87.431362" style="fill: #1f77b4; stroke: #1f77b4"/>
     <use xlink:href="#m8b205b2266" x="75.008635" y="48.700509" style="fill: #1f77b4; stroke: #1f77b4"/>
     <use xlink:href="#m8b205b2266" x="160.299382" y="74.054013" style="fill: #1f77b4; stroke: #1f77b4"/>
     <use xlink:href="#m8b205b2266" x="133.112741" y="56.303094" style="fill: #1f77b4; stroke: #1f77b4"/>
     <use xlink:href="#m8b205b2266" x="151.960973" y="43.772443" style="fill: #1f77b4; stroke: #1f77b4"/>
     <use xlink:href="#m8b205b2266" x="133.168452" y="54.877506" style="fill: #1f77b4; stroke: #1f77b4"/>
     <use xlink:href="#m8b205b2266" x="149.962652" y="36.179606" style="fill: #1f77b4; stroke: #1f77b4"/>
     <use xlink:href="#m8b205b2266" x="102.902442" y="80.114947" style="fill: #1f77b4; stroke: #1f77b4"/>
     <use xlink:href="#m8b205b2266" x="90.942228" y="49.81897" style="fill: #1f77b4; stroke: #1f77b4"/>
     <use xlink:href="#m8b205b2266" x="144.493531" y="69.936841" style="fill: #1f77b4; stroke: #1f77b4"/>
     <use xlink:href="#m8b205b2266" x="98.146534" y="73.378554" style="fill: #1f77b4; stroke: #1f77b4"/>
     <use xlink:href="#m8b205b2266" x="101.700102" y="67.976031" style="fill: #1f77b4; stroke: #1f77b4"/>
     <use xlink:href="#m8b205b2266" x="109.003784" y="63.029666" style="fill: #1f77b4; stroke: #1f77b4"/>
     <use xlink:href="#m8b205b2266" x="123.766483" y="56.225003" style="fill: #1f77b4; stroke: #1f77b4"/>
     <use xlink:href="#m8b205b2266" x="112.172804" y="78.825585" style="fill: #1f77b4; stroke: #1f77b4"/>
     <use xlink:href="#m8b205b2266" x="80.308713" y="40.594449" style="fill: #1f77b4; stroke: #1f77b4"/>
     <use xlink:href="#m8b205b2266" x="103.133621" y="48.647211" style="fill: #1f77b4; stroke: #1f77b4"/>
     <use xlink:href="#m8b205b2266" x="53.828521" y="85.69272" style="fill: #1f77b4; stroke: #1f77b4"/>
     <use xlink:href="#m8b205b2266" x="142.734439" y="29.724067" style="fill: #1f77b4; stroke: #1f77b4"/>
     <use xlink:href="#m8b205b2266" x="73.220721" y="22.180697" style="fill: #1f77b4; stroke: #1f77b4"/>
     <use xlink:href="#m8b205b2266" x="88.753142" y="35.450895" style="fill: #1f77b4; stroke: #1f77b4"/>
     <use xlink:href="#m8b205b2266" x="124.849031" y="60.59388" style="fill: #1f77b4; stroke: #1f77b4"/>
     <use xlink:href="#m8b205b2266" x="100.139189" y="77.078753" style="fill: #1f77b4; stroke: #1f77b4"/>
     <use xlink:href="#m8b205b2266" x="171.378462" y="37.751596" style="fill: #1f77b4; stroke: #1f77b4"/>
     <use xlink:href="#m8b205b2266" x="82.87088" y="64.725187" style="fill: #1f77b4; stroke: #1f77b4"/>
     <use xlink:href="#m8b205b2266" x="131.555619" y="34.64286" style="fill: #1f77b4; stroke: #1f77b4"/>
     <use xlink:href="#m8b205b2266" x="121.994941" y="53.410197" style="fill: #1f77b4; stroke: #1f77b4"/>
     <use xlink:href="#m8b205b2266" x="86.764747" y="39.191529" style="fill: #1f77b4; stroke: #1f77b4"/>
     <use xlink:href="#m8b205b2266" x="139.552429" y="50.669747" style="fill: #1f77b4; stroke: #1f77b4"/>
     <use xlink:href="#m8b205b2266" x="117.866996" y="44.18913" style="fill: #1f77b4; stroke: #1f77b4"/>
     <use xlink:href="#m8b205b2266" x="147.30855" y="57.070046" style="fill: #1f77b4; stroke: #1f77b4"/>
     <use xlink:href="#m8b205b2266" x="148.922533" y="24.216606" style="fill: #1f77b4; stroke: #1f77b4"/>
     <use xlink:href="#m8b205b2266" x="190.735577" y="54.915826" style="fill: #1f77b4; stroke: #1f77b4"/>
     <use xlink:href="#m8b205b2266" x="164.934011" y="49.825489" style="fill: #1f77b4; stroke: #1f77b4"/>
    </g>
   </g>
   <g id="matplotlib.axis_1">
    <g id="xtick_1">
     <g id="line2d_1">
      <defs>
       <path id="m48133df56b" d="M 0 0 
L 0 3.5 
" style="stroke: #000000; stroke-width: 0.8"/>
      </defs>
      <g>
       <use xlink:href="#m48133df56b" x="60.800936" y="108.97" style="stroke: #000000; stroke-width: 0.8"/>
      </g>
     </g>
     <g id="text_1">
      <!-- −2 -->
      <g transform="translate(53.429842 123.568437) scale(0.1 -0.1)">
       <defs>
        <path id="DejaVuSans-2212" d="M 678 2272 
L 4684 2272 
L 4684 1741 
L 678 1741 
L 678 2272 
z
" transform="scale(0.015625)"/>
        <path id="DejaVuSans-32" d="M 1228 531 
L 3431 531 
L 3431 0 
L 469 0 
L 469 531 
Q 828 903 1448 1529 
Q 2069 2156 2228 2338 
Q 2531 2678 2651 2914 
Q 2772 3150 2772 3378 
Q 2772 3750 2511 3984 
Q 2250 4219 1831 4219 
Q 1534 4219 1204 4116 
Q 875 4013 500 3803 
L 500 4441 
Q 881 4594 1212 4672 
Q 1544 4750 1819 4750 
Q 2544 4750 2975 4387 
Q 3406 4025 3406 3419 
Q 3406 3131 3298 2873 
Q 3191 2616 2906 2266 
Q 2828 2175 2409 1742 
Q 1991 1309 1228 531 
z
" transform="scale(0.015625)"/>
       </defs>
       <use xlink:href="#DejaVuSans-2212"/>
       <use xlink:href="#DejaVuSans-32" x="83.789062"/>
      </g>
     </g>
    </g>
    <g id="xtick_2">
     <g id="line2d_2">
      <g>
       <use xlink:href="#m48133df56b" x="123.220959" y="108.97" style="stroke: #000000; stroke-width: 0.8"/>
      </g>
     </g>
     <g id="text_2">
      <!-- 0 -->
      <g transform="translate(120.039709 123.568437) scale(0.1 -0.1)">
       <defs>
        <path id="DejaVuSans-30" d="M 2034 4250 
Q 1547 4250 1301 3770 
Q 1056 3291 1056 2328 
Q 1056 1369 1301 889 
Q 1547 409 2034 409 
Q 2525 409 2770 889 
Q 3016 1369 3016 2328 
Q 3016 3291 2770 3770 
Q 2525 4250 2034 4250 
z
M 2034 4750 
Q 2819 4750 3233 4129 
Q 3647 3509 3647 2328 
Q 3647 1150 3233 529 
Q 2819 -91 2034 -91 
Q 1250 -91 836 529 
Q 422 1150 422 2328 
Q 422 3509 836 4129 
Q 1250 4750 2034 4750 
z
" transform="scale(0.015625)"/>
       </defs>
       <use xlink:href="#DejaVuSans-30"/>
      </g>
     </g>
    </g>
    <g id="xtick_3">
     <g id="line2d_3">
      <g>
       <use xlink:href="#m48133df56b" x="185.640981" y="108.97" style="stroke: #000000; stroke-width: 0.8"/>
      </g>
     </g>
     <g id="text_3">
      <!-- 2 -->
      <g transform="translate(182.459731 123.568437) scale(0.1 -0.1)">
       <use xlink:href="#DejaVuSans-32"/>
      </g>
     </g>
    </g>
    <g id="text_4">
     <!-- Other Value -->
     <g transform="translate(96.19654 137.246562) scale(0.1 -0.1)">
      <defs>
       <path id="DejaVuSans-4f" d="M 2522 4238 
Q 1834 4238 1429 3725 
Q 1025 3213 1025 2328 
Q 1025 1447 1429 934 
Q 1834 422 2522 422 
Q 3209 422 3611 934 
Q 4013 1447 4013 2328 
Q 4013 3213 3611 3725 
Q 3209 4238 2522 4238 
z
M 2522 4750 
Q 3503 4750 4090 4092 
Q 4678 3434 4678 2328 
Q 4678 1225 4090 567 
Q 3503 -91 2522 -91 
Q 1538 -91 948 565 
Q 359 1222 359 2328 
Q 359 3434 948 4092 
Q 1538 4750 2522 4750 
z
" transform="scale(0.015625)"/>
       <path id="DejaVuSans-74" d="M 1172 4494 
L 1172 3500 
L 2356 3500 
L 2356 3053 
L 1172 3053 
L 1172 1153 
Q 1172 725 1289 603 
Q 1406 481 1766 481 
L 2356 481 
L 2356 0 
L 1766 0 
Q 1100 0 847 248 
Q 594 497 594 1153 
L 594 3053 
L 172 3053 
L 172 3500 
L 594 3500 
L 594 4494 
L 1172 4494 
z
" transform="scale(0.015625)"/>
       <path id="DejaVuSans-68" d="M 3513 2113 
L 3513 0 
L 2938 0 
L 2938 2094 
Q 2938 2591 2744 2837 
Q 2550 3084 2163 3084 
Q 1697 3084 1428 2787 
Q 1159 2491 1159 1978 
L 1159 0 
L 581 0 
L 581 4863 
L 1159 4863 
L 1159 2956 
Q 1366 3272 1645 3428 
Q 1925 3584 2291 3584 
Q 2894 3584 3203 3211 
Q 3513 2838 3513 2113 
z
" transform="scale(0.015625)"/>
       <path id="DejaVuSans-65" d="M 3597 1894 
L 3597 1613 
L 953 1613 
Q 991 1019 1311 708 
Q 1631 397 2203 397 
Q 2534 397 2845 478 
Q 3156 559 3463 722 
L 3463 178 
Q 3153 47 2828 -22 
Q 2503 -91 2169 -91 
Q 1331 -91 842 396 
Q 353 884 353 1716 
Q 353 2575 817 3079 
Q 1281 3584 2069 3584 
Q 2775 3584 3186 3129 
Q 3597 2675 3597 1894 
z
M 3022 2063 
Q 3016 2534 2758 2815 
Q 2500 3097 2075 3097 
Q 1594 3097 1305 2825 
Q 1016 2553 972 2059 
L 3022 2063 
z
" transform="scale(0.015625)"/>
       <path id="DejaVuSans-72" d="M 2631 2963 
Q 2534 3019 2420 3045 
Q 2306 3072 2169 3072 
Q 1681 3072 1420 2755 
Q 1159 2438 1159 1844 
L 1159 0 
L 581 0 
L 581 3500 
L 1159 3500 
L 1159 2956 
Q 1341 3275 1631 3429 
Q 1922 3584 2338 3584 
Q 2397 3584 2469 3576 
Q 2541 3569 2628 3553 
L 2631 2963 
z
" transform="scale(0.015625)"/>
       <path id="DejaVuSans-20" transform="scale(0.015625)"/>
       <path id="DejaVuSans-56" d="M 1831 0 
L 50 4666 
L 709 4666 
L 2188 738 
L 3669 4666 
L 4325 4666 
L 2547 0 
L 1831 0 
z
" transform="scale(0.015625)"/>
       <path id="DejaVuSans-61" d="M 2194 1759 
Q 1497 1759 1228 1600 
Q 959 1441 959 1056 
Q 959 750 1161 570 
Q 1363 391 1709 391 
Q 2188 391 2477 730 
Q 2766 1069 2766 1631 
L 2766 1759 
L 2194 1759 
z
M 3341 1997 
L 3341 0 
L 2766 0 
L 2766 531 
Q 2569 213 2275 61 
Q 1981 -91 1556 -91 
Q 1019 -91 701 211 
Q 384 513 384 1019 
Q 384 1609 779 1909 
Q 1175 2209 1959 2209 
L 2766 2209 
L 2766 2266 
Q 2766 2663 2505 2880 
Q 2244 3097 1772 3097 
Q 1472 3097 1187 3025 
Q 903 2953 641 2809 
L 641 3341 
Q 956 3463 1253 3523 
Q 1550 3584 1831 3584 
Q 2591 3584 2966 3190 
Q 3341 2797 3341 1997 
z
" transform="scale(0.015625)"/>
       <path id="DejaVuSans-6c" d="M 603 4863 
L 1178 4863 
L 1178 0 
L 603 0 
L 603 4863 
z
" transform="scale(0.015625)"/>
       <path id="DejaVuSans-75" d="M 544 1381 
L 544 3500 
L 1119 3500 
L 1119 1403 
Q 1119 906 1312 657 
Q 1506 409 1894 409 
Q 2359 409 2629 706 
Q 2900 1003 2900 1516 
L 2900 3500 
L 3475 3500 
L 3475 0 
L 2900 0 
L 2900 538 
Q 2691 219 2414 64 
Q 2138 -91 1772 -91 
Q 1169 -91 856 284 
Q 544 659 544 1381 
z
M 1991 3584 
L 1991 3584 
z
" transform="scale(0.015625)"/>
      </defs>
      <use xlink:href="#DejaVuSans-4f"/>
      <use xlink:href="#DejaVuSans-74" x="78.710938"/>
      <use xlink:href="#DejaVuSans-68" x="117.919922"/>
      <use xlink:href="#DejaVuSans-65" x="181.298828"/>
      <use xlink:href="#DejaVuSans-72" x="242.822266"/>
      <use xlink:href="#DejaVuSans-20" x="283.935547"/>
      <use xlink:href="#DejaVuSans-56" x="315.722656"/>
      <use xlink:href="#DejaVuSans-61" x="376.380859"/>
      <use xlink:href="#DejaVuSans-6c" x="437.660156"/>
      <use xlink:href="#DejaVuSans-75" x="465.443359"/>
      <use xlink:href="#DejaVuSans-65" x="528.822266"/>
     </g>
    </g>
   </g>
   <g id="matplotlib.axis_2">
    <g id="ytick_1">
     <g id="line2d_4">
      <defs>
       <path id="m5d073eb933" d="M 0 0 
L -3.5 0 
" style="stroke: #000000; stroke-width: 0.8"/>
      </defs>
      <g>
       <use xlink:href="#m5d073eb933" x="46.64" y="94.274586" style="stroke: #000000; stroke-width: 0.8"/>
      </g>
     </g>
     <g id="text_5">
      <!-- −2 -->
      <g transform="translate(24.897813 98.073804) scale(0.1 -0.1)">
       <use xlink:href="#DejaVuSans-2212"/>
       <use xlink:href="#DejaVuSans-32" x="83.789062"/>
      </g>
     </g>
    </g>
    <g id="ytick_2">
     <g id="line2d_5">
      <g>
       <use xlink:href="#m5d073eb933" x="46.64" y="57.26435" style="stroke: #000000; stroke-width: 0.8"/>
      </g>
     </g>
     <g id="text_6">
      <!-- 0 -->
      <g transform="translate(33.2775 61.063568) scale(0.1 -0.1)">
       <use xlink:href="#DejaVuSans-30"/>
      </g>
     </g>
    </g>
    <g id="ytick_3">
     <g id="line2d_6">
      <g>
       <use xlink:href="#m5d073eb933" x="46.64" y="20.254114" style="stroke: #000000; stroke-width: 0.8"/>
      </g>
     </g>
     <g id="text_7">
      <!-- 2 -->
      <g transform="translate(33.2775 24.053333) scale(0.1 -0.1)">
       <use xlink:href="#DejaVuSans-32"/>
      </g>
     </g>
    </g>
    <g id="text_8">
     <!-- Value -->
     <g transform="translate(18.818125 73.61625) rotate(-90) scale(0.1 -0.1)">
      <use xlink:href="#DejaVuSans-56"/>
      <use xlink:href="#DejaVuSans-61" x="60.658203"/>
      <use xlink:href="#DejaVuSans-6c" x="121.9375"/>
      <use xlink:href="#DejaVuSans-75" x="149.720703"/>
      <use xlink:href="#DejaVuSans-65" x="213.099609"/>
     </g>
    </g>
   </g>
   <g id="patch_3">
    <path d="M 46.64 108.97 
L 46.64 10.8 
" style="fill: none; stroke: #000000; stroke-width: 0.8; stroke-linejoin: miter; stroke-linecap: square"/>
   </g>
   <g id="patch_4">
    <path d="M 204.787455 108.97 
L 204.787455 10.8 
" style="fill: none; stroke: #000000; stroke-width: 0.8; stroke-linejoin: miter; stroke-linecap: square"/>
   </g>
   <g id="patch_5">
    <path d="M 46.64 108.97 
L 204.787455 108.97 
" style="fill: none; stroke: #000000; stroke-width: 0.8; stroke-linejoin: miter; stroke-linecap: square"/>
   </g>
   <g id="patch_6">
    <path d="M 46.64 10.8 
L 204.787455 10.8 
" style="fill: none; stroke: #000000; stroke-width: 0.8; stroke-linejoin: miter; stroke-linecap: square"/>
   </g>
   <g id="text_9">
    <!-- (A) -->
    <g transform="translate(54.547373 25.5255) scale(0.1 -0.1)">
     <defs>
      <path id="DejaVuSans-28" d="M 1984 4856 
Q 1566 4138 1362 3434 
Q 1159 2731 1159 2009 
Q 1159 1288 1364 580 
Q 1569 -128 1984 -844 
L 1484 -844 
Q 1016 -109 783 600 
Q 550 1309 550 2009 
Q 550 2706 781 3412 
Q 1013 4119 1484 4856 
L 1984 4856 
z
" transform="scale(0.015625)"/>
      <path id="DejaVuSans-41" d="M 2188 4044 
L 1331 1722 
L 3047 1722 
L 2188 4044 
z
M 1831 4666 
L 2547 4666 
L 4325 0 
L 3669 0 
L 3244 1197 
L 1141 1197 
L 716 0 
L 50 0 
L 1831 4666 
z
" transform="scale(0.015625)"/>
      <path id="DejaVuSans-29" d="M 513 4856 
L 1013 4856 
Q 1481 4119 1714 3412 
Q 1947 2706 1947 2009 
Q 1947 1309 1714 600 
Q 1481 -109 1013 -844 
L 513 -844 
Q 928 -128 1133 580 
Q 1338 1288 1338 2009 
Q 1338 2731 1133 3434 
Q 928 4138 513 4856 
z
" transform="scale(0.015625)"/>
     </defs>
     <use xlink:href="#DejaVuSans-28"/>
     <use xlink:href="#DejaVuSans-41" x="39.013672"/>
     <use xlink:href="#DejaVuSans-29" x="107.421875"/>
    </g>
   </g>
  </g>
  <g id="axes_2">
   <g id="patch_7">
    <path d="M 258.987455 108.97 
L 417.13491 108.97 
L 417.13491 10.8 
L 258.987455 10.8 
z
" style="fill: #ffffff"/>
   </g>
   <g id="matplotlib.axis_3">
    <g id="xtick_4">
     <g id="line2d_7">
      <g>
       <use xlink:href="#m48133df56b" x="266.175976" y="108.97" style="stroke: #000000; stroke-width: 0.8"/>
      </g>
     </g>
     <g id="text_10">
      <!-- 0 -->
      <g transform="translate(262.994726 123.568437) scale(0.1 -0.1)">
       <use xlink:href="#DejaVuSans-30"/>
      </g>
     </g>
    </g>
    <g id="xtick_5">
     <g id="line2d_8">
      <g>
       <use xlink:href="#m48133df56b" x="302.481636" y="108.97" style="stroke: #000000; stroke-width: 0.8"/>
      </g>
     </g>
     <g id="text_11">
      <!-- 25 -->
      <g transform="translate(296.119136 123.568437) scale(0.1 -0.1)">
       <defs>
        <path id="DejaVuSans-35" d="M 691 4666 
L 3169 4666 
L 3169 4134 
L 1269 4134 
L 1269 2991 
Q 1406 3038 1543 3061 
Q 1681 3084 1819 3084 
Q 2600 3084 3056 2656 
Q 3513 2228 3513 1497 
Q 3513 744 3044 326 
Q 2575 -91 1722 -91 
Q 1428 -91 1123 -41 
Q 819 9 494 109 
L 494 744 
Q 775 591 1075 516 
Q 1375 441 1709 441 
Q 2250 441 2565 725 
Q 2881 1009 2881 1497 
Q 2881 1984 2565 2268 
Q 2250 2553 1709 2553 
Q 1456 2553 1204 2497 
Q 953 2441 691 2322 
L 691 4666 
z
" transform="scale(0.015625)"/>
       </defs>
       <use xlink:href="#DejaVuSans-32"/>
       <use xlink:href="#DejaVuSans-35" x="63.623047"/>
      </g>
     </g>
    </g>
    <g id="xtick_6">
     <g id="line2d_9">
      <g>
       <use xlink:href="#m48133df56b" x="338.787296" y="108.97" style="stroke: #000000; stroke-width: 0.8"/>
      </g>
     </g>
     <g id="text_12">
      <!-- 50 -->
      <g transform="translate(332.424796 123.568437) scale(0.1 -0.1)">
       <use xlink:href="#DejaVuSans-35"/>
       <use xlink:href="#DejaVuSans-30" x="63.623047"/>
      </g>
     </g>
    </g>
    <g id="xtick_7">
     <g id="line2d_10">
      <g>
       <use xlink:href="#m48133df56b" x="375.092956" y="108.97" style="stroke: #000000; stroke-width: 0.8"/>
      </g>
     </g>
     <g id="text_13">
      <!-- 75 -->
      <g transform="translate(368.730456 123.568437) scale(0.1 -0.1)">
       <defs>
        <path id="DejaVuSans-37" d="M 525 4666 
L 3525 4666 
L 3525 4397 
L 1831 0 
L 1172 0 
L 2766 4134 
L 525 4134 
L 525 4666 
z
" transform="scale(0.015625)"/>
       </defs>
       <use xlink:href="#DejaVuSans-37"/>
       <use xlink:href="#DejaVuSans-35" x="63.623047"/>
      </g>
     </g>
    </g>
    <g id="xtick_8">
     <g id="line2d_11">
      <g>
       <use xlink:href="#m48133df56b" x="411.398616" y="108.97" style="stroke: #000000; stroke-width: 0.8"/>
      </g>
     </g>
     <g id="text_14">
      <!-- 100 -->
      <g transform="translate(401.854866 123.568437) scale(0.1 -0.1)">
       <defs>
        <path id="DejaVuSans-31" d="M 794 531 
L 1825 531 
L 1825 4091 
L 703 3866 
L 703 4441 
L 1819 4666 
L 2450 4666 
L 2450 531 
L 3481 531 
L 3481 0 
L 794 0 
L 794 531 
z
" transform="scale(0.015625)"/>
       </defs>
       <use xlink:href="#DejaVuSans-31"/>
       <use xlink:href="#DejaVuSans-30" x="63.623047"/>
       <use xlink:href="#DejaVuSans-30" x="127.246094"/>
      </g>
     </g>
    </g>
    <g id="text_15">
     <!-- Date -->
     <g transform="translate(326.110401 137.246562) scale(0.1 -0.1)">
      <defs>
       <path id="DejaVuSans-44" d="M 1259 4147 
L 1259 519 
L 2022 519 
Q 2988 519 3436 956 
Q 3884 1394 3884 2338 
Q 3884 3275 3436 3711 
Q 2988 4147 2022 4147 
L 1259 4147 
z
M 628 4666 
L 1925 4666 
Q 3281 4666 3915 4102 
Q 4550 3538 4550 2338 
Q 4550 1131 3912 565 
Q 3275 0 1925 0 
L 628 0 
L 628 4666 
z
" transform="scale(0.015625)"/>
      </defs>
      <use xlink:href="#DejaVuSans-44"/>
      <use xlink:href="#DejaVuSans-61" x="77.001953"/>
      <use xlink:href="#DejaVuSans-74" x="138.28125"/>
      <use xlink:href="#DejaVuSans-65" x="177.490234"/>
     </g>
    </g>
   </g>
   <g id="matplotlib.axis_4">
    <g id="ytick_4">
     <g id="line2d_12">
      <g>
       <use xlink:href="#m5d073eb933" x="258.987455" y="94.274586" style="stroke: #000000; stroke-width: 0.8"/>
      </g>
     </g>
     <g id="text_16">
      <!-- −2 -->
      <g transform="translate(237.245267 98.073804) scale(0.1 -0.1)">
       <use xlink:href="#DejaVuSans-2212"/>
       <use xlink:href="#DejaVuSans-32" x="83.789062"/>
      </g>
     </g>
    </g>
    <g id="ytick_5">
     <g id="line2d_13">
      <g>
       <use xlink:href="#m5d073eb933" x="258.987455" y="57.26435" style="stroke: #000000; stroke-width: 0.8"/>
      </g>
     </g>
     <g id="text_17">
      <!-- 0 -->
      <g transform="translate(245.624955 61.063568) scale(0.1 -0.1)">
       <use xlink:href="#DejaVuSans-30"/>
      </g>
     </g>
    </g>
    <g id="ytick_6">
     <g id="line2d_14">
      <g>
       <use xlink:href="#m5d073eb933" x="258.987455" y="20.254114" style="stroke: #000000; stroke-width: 0.8"/>
      </g>
     </g>
     <g id="text_18">
      <!-- 2 -->
      <g transform="translate(245.624955 24.053333) scale(0.1 -0.1)">
       <use xlink:href="#DejaVuSans-32"/>
      </g>
     </g>
    </g>
   </g>
   <g id="line2d_15">
    <path d="M 266.175976 24.620353 
L 267.628202 49.859393 
L 269.080428 39.152688 
L 270.532655 15.796357 
L 271.984881 22.704969 
L 273.437108 75.348992 
L 274.889334 39.682851 
L 276.34156 60.065233 
L 277.793787 59.174427 
L 279.246013 49.666176 
L 280.69824 54.598806 
L 282.150466 30.352847 
L 283.602692 43.181257 
L 285.054919 55.012739 
L 286.507145 49.050608 
L 287.959372 51.089667 
L 289.411598 29.61624 
L 290.863824 61.060828 
L 292.316051 51.470995 
L 293.768277 73.069492 
L 295.220504 104.507727 
L 296.67273 45.169061 
L 298.124956 41.267856 
L 299.577183 70.998201 
L 301.029409 15.262273 
L 302.481636 84.177558 
L 303.933862 56.417583 
L 305.386088 60.728209 
L 306.838315 28.90009 
L 308.290541 30.073692 
L 309.742768 54.397029 
L 311.194994 50.266408 
L 312.64722 73.69293 
L 314.099447 93.919222 
L 315.551673 63.702505 
L 317.0039 54.371094 
L 318.456126 34.497676 
L 319.908352 35.014169 
L 321.360579 64.431878 
L 322.812805 62.858498 
L 324.265032 76.667946 
L 325.717258 83.541949 
L 327.169484 88.839081 
L 328.621711 21.165021 
L 330.073937 66.695523 
L 331.526164 65.370966 
L 332.97839 80.447476 
L 334.430616 42.876799 
L 335.882843 87.12972 
L 337.335069 61.201134 
L 338.787296 73.835064 
L 340.239522 50.104673 
L 341.691748 66.716859 
L 343.143975 79.112087 
L 344.596201 57.785865 
L 346.048428 49.338018 
L 347.500654 56.033441 
L 348.95288 51.667072 
L 350.405107 69.002555 
L 351.857333 63.976918 
L 353.30956 69.70831 
L 354.761786 63.917923 
L 356.214012 72.311718 
L 357.666239 89.209413 
L 359.118465 53.981058 
L 360.570692 64.699353 
L 362.022918 87.431362 
L 363.475144 48.700509 
L 364.927371 74.054013 
L 366.379597 56.303094 
L 367.831824 43.772443 
L 369.28405 54.877506 
L 370.736276 36.179606 
L 372.188503 80.114947 
L 373.640729 49.81897 
L 375.092956 69.936841 
L 376.545182 73.378554 
L 377.997408 67.976031 
L 379.449635 63.029666 
L 380.901861 56.225003 
L 382.354088 78.825585 
L 383.806314 40.594449 
L 385.25854 48.647211 
L 386.710767 85.69272 
L 388.162993 29.724067 
L 389.61522 22.180697 
L 391.067446 35.450895 
L 392.519672 60.59388 
L 393.971899 77.078753 
L 395.424125 37.751596 
L 396.876352 64.725187 
L 398.328578 34.64286 
L 399.780804 53.410197 
L 401.233031 39.191529 
L 402.685257 50.669747 
L 404.137484 44.18913 
L 405.58971 57.070046 
L 407.041936 24.216606 
L 408.494163 54.915826 
L 409.946389 49.825489 
" clip-path="url(#p587686d62f)" style="fill: none; stroke: #1f77b4; stroke-width: 1.5; stroke-linecap: square"/>
   </g>
   <g id="patch_8">
    <path d="M 258.987455 108.97 
L 258.987455 10.8 
" style="fill: none; stroke: #000000; stroke-width: 0.8; stroke-linejoin: miter; stroke-linecap: square"/>
   </g>
   <g id="patch_9">
    <path d="M 417.13491 108.97 
L 417.13491 10.8 
" style="fill: none; stroke: #000000; stroke-width: 0.8; stroke-linejoin: miter; stroke-linecap: square"/>
   </g>
   <g id="patch_10">
    <path d="M 258.987455 108.97 
L 417.13491 108.97 
" style="fill: none; stroke: #000000; stroke-width: 0.8; stroke-linejoin: miter; stroke-linecap: square"/>
   </g>
   <g id="patch_11">
    <path d="M 258.987455 10.8 
L 417.13491 10.8 
" style="fill: none; stroke: #000000; stroke-width: 0.8; stroke-linejoin: miter; stroke-linecap: square"/>
   </g>
   <g id="text_19">
    <!-- (B) -->
    <g transform="translate(266.894828 25.5255) scale(0.1 -0.1)">
     <defs>
      <path id="DejaVuSans-42" d="M 1259 2228 
L 1259 519 
L 2272 519 
Q 2781 519 3026 730 
Q 3272 941 3272 1375 
Q 3272 1813 3026 2020 
Q 2781 2228 2272 2228 
L 1259 2228 
z
M 1259 4147 
L 1259 2741 
L 2194 2741 
Q 2656 2741 2882 2914 
Q 3109 3088 3109 3444 
Q 3109 3797 2882 3972 
Q 2656 4147 2194 4147 
L 1259 4147 
z
M 628 4666 
L 2241 4666 
Q 2963 4666 3353 4366 
Q 3744 4066 3744 3513 
Q 3744 3084 3544 2831 
Q 3344 2578 2956 2516 
Q 3422 2416 3680 2098 
Q 3938 1781 3938 1306 
Q 3938 681 3513 340 
Q 3088 0 2303 0 
L 628 0 
L 628 4666 
z
" transform="scale(0.015625)"/>
     </defs>
     <use xlink:href="#DejaVuSans-28"/>
     <use xlink:href="#DejaVuSans-42" x="39.013672"/>
     <use xlink:href="#DejaVuSans-29" x="107.617188"/>
    </g>
   </g>
  </g>
  <g id="axes_3">
   <g id="patch_12">
    <path d="M 46.64 249.1 
L 204.787455 249.1 
L 204.787455 150.93 
L 46.64 150.93 
z
" style="fill: #ffffff"/>
   </g>
   <g id="patch_13">
    <path d="M 59.818955 204.84745 
L 86.176864 204.84745 
L 86.176864 155.392273 
L 59.818955 155.392273 
z
" clip-path="url(#p48237897eb)" style="fill: #1f77b4"/>
   </g>
   <g id="patch_14">
    <path d="M 112.534773 204.84745 
L 138.892682 204.84745 
L 138.892682 244.637727 
L 112.534773 244.637727 
z
" clip-path="url(#p48237897eb)" style="fill: #1f77b4"/>
   </g>
   <g id="patch_15">
    <path d="M 165.250591 204.84745 
L 191.6085 204.84745 
L 191.6085 179.331243 
L 165.250591 179.331243 
z
" clip-path="url(#p48237897eb)" style="fill: #1f77b4"/>
   </g>
   <g id="matplotlib.axis_5">
    <g id="xtick_9">
     <g id="line2d_16">
      <g>
       <use xlink:href="#m48133df56b" x="72.997909" y="249.1" style="stroke: #000000; stroke-width: 0.8"/>
      </g>
     </g>
     <g id="text_20">
      <!-- A -->
      <g transform="translate(75.757284 262.940625) rotate(-90) scale(0.1 -0.1)">
       <use xlink:href="#DejaVuSans-41"/>
      </g>
     </g>
    </g>
    <g id="xtick_10">
     <g id="line2d_17">
      <g>
       <use xlink:href="#m48133df56b" x="125.713727" y="249.1" style="stroke: #000000; stroke-width: 0.8"/>
      </g>
     </g>
     <g id="text_21">
      <!-- B -->
      <g transform="translate(128.473102 262.960938) rotate(-90) scale(0.1 -0.1)">
       <use xlink:href="#DejaVuSans-42"/>
      </g>
     </g>
    </g>
    <g id="xtick_11">
     <g id="line2d_18">
      <g>
       <use xlink:href="#m48133df56b" x="178.429546" y="249.1" style="stroke: #000000; stroke-width: 0.8"/>
      </g>
     </g>
     <g id="text_22">
      <!-- C -->
      <g transform="translate(181.188921 263.082812) rotate(-90) scale(0.1 -0.1)">
       <defs>
        <path id="DejaVuSans-43" d="M 4122 4306 
L 4122 3641 
Q 3803 3938 3442 4084 
Q 3081 4231 2675 4231 
Q 1875 4231 1450 3742 
Q 1025 3253 1025 2328 
Q 1025 1406 1450 917 
Q 1875 428 2675 428 
Q 3081 428 3442 575 
Q 3803 722 4122 1019 
L 4122 359 
Q 3791 134 3420 21 
Q 3050 -91 2638 -91 
Q 1578 -91 968 557 
Q 359 1206 359 2328 
Q 359 3453 968 4101 
Q 1578 4750 2638 4750 
Q 3056 4750 3426 4639 
Q 3797 4528 4122 4306 
z
" transform="scale(0.015625)"/>
       </defs>
       <use xlink:href="#DejaVuSans-43"/>
      </g>
     </g>
    </g>
    <g id="text_23">
     <!-- Category -->
     <g transform="translate(102.873102 274.68125) scale(0.1 -0.1)">
      <defs>
       <path id="DejaVuSans-67" d="M 2906 1791 
Q 2906 2416 2648 2759 
Q 2391 3103 1925 3103 
Q 1463 3103 1205 2759 
Q 947 2416 947 1791 
Q 947 1169 1205 825 
Q 1463 481 1925 481 
Q 2391 481 2648 825 
Q 2906 1169 2906 1791 
z
M 3481 434 
Q 3481 -459 3084 -895 
Q 2688 -1331 1869 -1331 
Q 1566 -1331 1297 -1286 
Q 1028 -1241 775 -1147 
L 775 -588 
Q 1028 -725 1275 -790 
Q 1522 -856 1778 -856 
Q 2344 -856 2625 -561 
Q 2906 -266 2906 331 
L 2906 616 
Q 2728 306 2450 153 
Q 2172 0 1784 0 
Q 1141 0 747 490 
Q 353 981 353 1791 
Q 353 2603 747 3093 
Q 1141 3584 1784 3584 
Q 2172 3584 2450 3431 
Q 2728 3278 2906 2969 
L 2906 3500 
L 3481 3500 
L 3481 434 
z
" transform="scale(0.015625)"/>
       <path id="DejaVuSans-6f" d="M 1959 3097 
Q 1497 3097 1228 2736 
Q 959 2375 959 1747 
Q 959 1119 1226 758 
Q 1494 397 1959 397 
Q 2419 397 2687 759 
Q 2956 1122 2956 1747 
Q 2956 2369 2687 2733 
Q 2419 3097 1959 3097 
z
M 1959 3584 
Q 2709 3584 3137 3096 
Q 3566 2609 3566 1747 
Q 3566 888 3137 398 
Q 2709 -91 1959 -91 
Q 1206 -91 779 398 
Q 353 888 353 1747 
Q 353 2609 779 3096 
Q 1206 3584 1959 3584 
z
" transform="scale(0.015625)"/>
       <path id="DejaVuSans-79" d="M 2059 -325 
Q 1816 -950 1584 -1140 
Q 1353 -1331 966 -1331 
L 506 -1331 
L 506 -850 
L 844 -850 
Q 1081 -850 1212 -737 
Q 1344 -625 1503 -206 
L 1606 56 
L 191 3500 
L 800 3500 
L 1894 763 
L 2988 3500 
L 3597 3500 
L 2059 -325 
z
" transform="scale(0.015625)"/>
      </defs>
      <use xlink:href="#DejaVuSans-43"/>
      <use xlink:href="#DejaVuSans-61" x="69.824219"/>
      <use xlink:href="#DejaVuSans-74" x="131.103516"/>
      <use xlink:href="#DejaVuSans-65" x="170.3125"/>
      <use xlink:href="#DejaVuSans-67" x="231.835938"/>
      <use xlink:href="#DejaVuSans-6f" x="295.3125"/>
      <use xlink:href="#DejaVuSans-72" x="356.494141"/>
      <use xlink:href="#DejaVuSans-79" x="397.607422"/>
     </g>
    </g>
   </g>
   <g id="matplotlib.axis_6">
    <g id="ytick_7">
     <g id="line2d_19">
      <g>
       <use xlink:href="#m5d073eb933" x="46.64" y="204.84745" style="stroke: #000000; stroke-width: 0.8"/>
      </g>
     </g>
     <g id="text_24">
      <!-- 0.0 -->
      <g transform="translate(23.736875 208.646669) scale(0.1 -0.1)">
       <defs>
        <path id="DejaVuSans-2e" d="M 684 794 
L 1344 794 
L 1344 0 
L 684 0 
L 684 794 
z
" transform="scale(0.015625)"/>
       </defs>
       <use xlink:href="#DejaVuSans-30"/>
       <use xlink:href="#DejaVuSans-2e" x="63.623047"/>
       <use xlink:href="#DejaVuSans-30" x="95.410156"/>
      </g>
     </g>
    </g>
    <g id="ytick_8">
     <g id="line2d_20">
      <g>
       <use xlink:href="#m5d073eb933" x="46.64" y="155.782122" style="stroke: #000000; stroke-width: 0.8"/>
      </g>
     </g>
     <g id="text_25">
      <!-- 0.2 -->
      <g transform="translate(23.736875 159.581341) scale(0.1 -0.1)">
       <use xlink:href="#DejaVuSans-30"/>
       <use xlink:href="#DejaVuSans-2e" x="63.623047"/>
       <use xlink:href="#DejaVuSans-32" x="95.410156"/>
      </g>
     </g>
    </g>
   </g>
   <g id="patch_16">
    <path d="M 46.64 249.1 
L 46.64 150.93 
" style="fill: none; stroke: #000000; stroke-width: 0.8; stroke-linejoin: miter; stroke-linecap: square"/>
   </g>
   <g id="patch_17">
    <path d="M 204.787455 249.1 
L 204.787455 150.93 
" style="fill: none; stroke: #000000; stroke-width: 0.8; stroke-linejoin: miter; stroke-linecap: square"/>
   </g>
   <g id="patch_18">
    <path d="M 46.64 249.1 
L 204.787455 249.1 
" style="fill: none; stroke: #000000; stroke-width: 0.8; stroke-linejoin: miter; stroke-linecap: square"/>
   </g>
   <g id="patch_19">
    <path d="M 46.64 150.93 
L 204.787455 150.93 
" style="fill: none; stroke: #000000; stroke-width: 0.8; stroke-linejoin: miter; stroke-linecap: square"/>
   </g>
   <g id="text_26">
    <!-- (C) -->
    <g transform="translate(54.547373 165.6555) scale(0.1 -0.1)">
     <use xlink:href="#DejaVuSans-28"/>
     <use xlink:href="#DejaVuSans-43" x="39.013672"/>
     <use xlink:href="#DejaVuSans-29" x="108.837891"/>
    </g>
   </g>
  </g>
  <g id="axes_4">
   <g id="patch_20">
    <path d="M 258.987455 249.1 
L 417.13491 249.1 
L 417.13491 150.93 
L 258.987455 150.93 
z
" style="fill: #ffffff"/>
   </g>
   <g id="patch_21">
    <path d="M 266.175976 249.1 
L 273.364496 249.1 
L 273.364496 240.600433 
L 266.175976 240.600433 
z
" clip-path="url(#pf67041c67e)" style="fill: #1f77b4"/>
   </g>
   <g id="patch_22">
    <path d="M 273.364496 249.1 
L 280.553017 249.1 
L 280.553017 249.1 
L 273.364496 249.1 
z
" clip-path="url(#pf67041c67e)" style="fill: #1f77b4"/>
   </g>
   <g id="patch_23">
    <path d="M 280.553017 249.1 
L 287.741538 249.1 
L 287.741538 240.600433 
L 280.553017 240.600433 
z
" clip-path="url(#pf67041c67e)" style="fill: #1f77b4"/>
   </g>
   <g id="patch_24">
    <path d="M 287.741538 249.1 
L 294.930058 249.1 
L 294.930058 215.101732 
L 287.741538 215.101732 
z
" clip-path="url(#pf67041c67e)" style="fill: #1f77b4"/>
   </g>
   <g id="patch_25">
    <path d="M 294.930058 249.1 
L 302.118579 249.1 
L 302.118579 223.601299 
L 294.930058 223.601299 
z
" clip-path="url(#pf67041c67e)" style="fill: #1f77b4"/>
   </g>
   <g id="patch_26">
    <path d="M 302.118579 249.1 
L 309.3071 249.1 
L 309.3071 215.101732 
L 302.118579 215.101732 
z
" clip-path="url(#pf67041c67e)" style="fill: #1f77b4"/>
   </g>
   <g id="patch_27">
    <path d="M 309.3071 249.1 
L 316.49562 249.1 
L 316.49562 189.60303 
L 309.3071 189.60303 
z
" clip-path="url(#pf67041c67e)" style="fill: #1f77b4"/>
   </g>
   <g id="patch_28">
    <path d="M 316.49562 249.1 
L 323.684141 249.1 
L 323.684141 198.102597 
L 316.49562 198.102597 
z
" clip-path="url(#pf67041c67e)" style="fill: #1f77b4"/>
   </g>
   <g id="patch_29">
    <path d="M 323.684141 249.1 
L 330.872662 249.1 
L 330.872662 189.60303 
L 323.684141 189.60303 
z
" clip-path="url(#pf67041c67e)" style="fill: #1f77b4"/>
   </g>
   <g id="patch_30">
    <path d="M 330.872662 249.1 
L 338.061182 249.1 
L 338.061182 164.104329 
L 330.872662 164.104329 
z
" clip-path="url(#pf67041c67e)" style="fill: #1f77b4"/>
   </g>
   <g id="patch_31">
    <path d="M 338.061182 249.1 
L 345.249703 249.1 
L 345.249703 189.60303 
L 338.061182 189.60303 
z
" clip-path="url(#pf67041c67e)" style="fill: #1f77b4"/>
   </g>
   <g id="patch_32">
    <path d="M 345.249703 249.1 
L 352.438224 249.1 
L 352.438224 155.604762 
L 345.249703 155.604762 
z
" clip-path="url(#pf67041c67e)" style="fill: #1f77b4"/>
   </g>
   <g id="patch_33">
    <path d="M 352.438224 249.1 
L 359.626744 249.1 
L 359.626744 155.604762 
L 352.438224 155.604762 
z
" clip-path="url(#pf67041c67e)" style="fill: #1f77b4"/>
   </g>
   <g id="patch_34">
    <path d="M 359.626744 249.1 
L 366.815265 249.1 
L 366.815265 206.602165 
L 359.626744 206.602165 
z
" clip-path="url(#pf67041c67e)" style="fill: #1f77b4"/>
   </g>
   <g id="patch_35">
    <path d="M 366.815265 249.1 
L 374.003786 249.1 
L 374.003786 198.102597 
L 366.815265 198.102597 
z
" clip-path="url(#pf67041c67e)" style="fill: #1f77b4"/>
   </g>
   <g id="patch_36">
    <path d="M 374.003786 249.1 
L 381.192306 249.1 
L 381.192306 206.602165 
L 374.003786 206.602165 
z
" clip-path="url(#pf67041c67e)" style="fill: #1f77b4"/>
   </g>
   <g id="patch_37">
    <path d="M 381.192306 249.1 
L 388.380827 249.1 
L 388.380827 206.602165 
L 381.192306 206.602165 
z
" clip-path="url(#pf67041c67e)" style="fill: #1f77b4"/>
   </g>
   <g id="patch_38">
    <path d="M 388.380827 249.1 
L 395.569348 249.1 
L 395.569348 232.100866 
L 388.380827 232.100866 
z
" clip-path="url(#pf67041c67e)" style="fill: #1f77b4"/>
   </g>
   <g id="patch_39">
    <path d="M 395.569348 249.1 
L 402.757868 249.1 
L 402.757868 223.601299 
L 395.569348 223.601299 
z
" clip-path="url(#pf67041c67e)" style="fill: #1f77b4"/>
   </g>
   <g id="patch_40">
    <path d="M 402.757868 249.1 
L 409.946389 249.1 
L 409.946389 232.100866 
L 402.757868 232.100866 
z
" clip-path="url(#pf67041c67e)" style="fill: #1f77b4"/>
   </g>
   <g id="matplotlib.axis_7">
    <g id="xtick_12">
     <g id="line2d_21">
      <g>
       <use xlink:href="#m48133df56b" x="282.661107" y="249.1" style="stroke: #000000; stroke-width: 0.8"/>
      </g>
     </g>
     <g id="text_27">
      <!-- −2 -->
      <g transform="translate(275.290013 263.698438) scale(0.1 -0.1)">
       <use xlink:href="#DejaVuSans-2212"/>
       <use xlink:href="#DejaVuSans-32" x="83.789062"/>
      </g>
     </g>
    </g>
    <g id="xtick_13">
     <g id="line2d_22">
      <g>
       <use xlink:href="#m48133df56b" x="342.282932" y="249.1" style="stroke: #000000; stroke-width: 0.8"/>
      </g>
     </g>
     <g id="text_28">
      <!-- 0 -->
      <g transform="translate(339.101682 263.698438) scale(0.1 -0.1)">
       <use xlink:href="#DejaVuSans-30"/>
      </g>
     </g>
    </g>
    <g id="xtick_14">
     <g id="line2d_23">
      <g>
       <use xlink:href="#m48133df56b" x="401.904758" y="249.1" style="stroke: #000000; stroke-width: 0.8"/>
      </g>
     </g>
     <g id="text_29">
      <!-- 2 -->
      <g transform="translate(398.723508 263.698438) scale(0.1 -0.1)">
       <use xlink:href="#DejaVuSans-32"/>
      </g>
     </g>
    </g>
   </g>
   <g id="matplotlib.axis_8">
    <g id="ytick_9">
     <g id="line2d_24">
      <g>
       <use xlink:href="#m5d073eb933" x="258.987455" y="249.1" style="stroke: #000000; stroke-width: 0.8"/>
      </g>
     </g>
     <g id="text_30">
      <!-- 0 -->
      <g transform="translate(245.624955 252.899219) scale(0.1 -0.1)">
       <use xlink:href="#DejaVuSans-30"/>
      </g>
     </g>
    </g>
    <g id="ytick_10">
     <g id="line2d_25">
      <g>
       <use xlink:href="#m5d073eb933" x="258.987455" y="206.602165" style="stroke: #000000; stroke-width: 0.8"/>
      </g>
     </g>
     <g id="text_31">
      <!-- 5 -->
      <g transform="translate(245.624955 210.401383) scale(0.1 -0.1)">
       <use xlink:href="#DejaVuSans-35"/>
      </g>
     </g>
    </g>
    <g id="ytick_11">
     <g id="line2d_26">
      <g>
       <use xlink:href="#m5d073eb933" x="258.987455" y="164.104329" style="stroke: #000000; stroke-width: 0.8"/>
      </g>
     </g>
     <g id="text_32">
      <!-- 10 -->
      <g transform="translate(239.262455 167.903548) scale(0.1 -0.1)">
       <use xlink:href="#DejaVuSans-31"/>
       <use xlink:href="#DejaVuSans-30" x="63.623047"/>
      </g>
     </g>
    </g>
    <g id="text_33">
     <!-- Frequency -->
     <g transform="translate(233.182767 225.844688) rotate(-90) scale(0.1 -0.1)">
      <defs>
       <path id="DejaVuSans-46" d="M 628 4666 
L 3309 4666 
L 3309 4134 
L 1259 4134 
L 1259 2759 
L 3109 2759 
L 3109 2228 
L 1259 2228 
L 1259 0 
L 628 0 
L 628 4666 
z
" transform="scale(0.015625)"/>
       <path id="DejaVuSans-71" d="M 947 1747 
Q 947 1113 1208 752 
Q 1469 391 1925 391 
Q 2381 391 2643 752 
Q 2906 1113 2906 1747 
Q 2906 2381 2643 2742 
Q 2381 3103 1925 3103 
Q 1469 3103 1208 2742 
Q 947 2381 947 1747 
z
M 2906 525 
Q 2725 213 2448 61 
Q 2172 -91 1784 -91 
Q 1150 -91 751 415 
Q 353 922 353 1747 
Q 353 2572 751 3078 
Q 1150 3584 1784 3584 
Q 2172 3584 2448 3432 
Q 2725 3281 2906 2969 
L 2906 3500 
L 3481 3500 
L 3481 -1331 
L 2906 -1331 
L 2906 525 
z
" transform="scale(0.015625)"/>
       <path id="DejaVuSans-6e" d="M 3513 2113 
L 3513 0 
L 2938 0 
L 2938 2094 
Q 2938 2591 2744 2837 
Q 2550 3084 2163 3084 
Q 1697 3084 1428 2787 
Q 1159 2491 1159 1978 
L 1159 0 
L 581 0 
L 581 3500 
L 1159 3500 
L 1159 2956 
Q 1366 3272 1645 3428 
Q 1925 3584 2291 3584 
Q 2894 3584 3203 3211 
Q 3513 2838 3513 2113 
z
" transform="scale(0.015625)"/>
       <path id="DejaVuSans-63" d="M 3122 3366 
L 3122 2828 
Q 2878 2963 2633 3030 
Q 2388 3097 2138 3097 
Q 1578 3097 1268 2742 
Q 959 2388 959 1747 
Q 959 1106 1268 751 
Q 1578 397 2138 397 
Q 2388 397 2633 464 
Q 2878 531 3122 666 
L 3122 134 
Q 2881 22 2623 -34 
Q 2366 -91 2075 -91 
Q 1284 -91 818 406 
Q 353 903 353 1747 
Q 353 2603 823 3093 
Q 1294 3584 2113 3584 
Q 2378 3584 2631 3529 
Q 2884 3475 3122 3366 
z
" transform="scale(0.015625)"/>
      </defs>
      <use xlink:href="#DejaVuSans-46"/>
      <use xlink:href="#DejaVuSans-72" x="50.269531"/>
      <use xlink:href="#DejaVuSans-65" x="89.132812"/>
      <use xlink:href="#DejaVuSans-71" x="150.65625"/>
      <use xlink:href="#DejaVuSans-75" x="214.132812"/>
      <use xlink:href="#DejaVuSans-65" x="277.511719"/>
      <use xlink:href="#DejaVuSans-6e" x="339.035156"/>
      <use xlink:href="#DejaVuSans-63" x="402.414062"/>
      <use xlink:href="#DejaVuSans-79" x="457.394531"/>
     </g>
    </g>
   </g>
   <g id="patch_41">
    <path d="M 258.987455 249.1 
L 258.987455 150.93 
" style="fill: none; stroke: #000000; stroke-width: 0.8; stroke-linejoin: miter; stroke-linecap: square"/>
   </g>
   <g id="patch_42">
    <path d="M 417.13491 249.1 
L 417.13491 150.93 
" style="fill: none; stroke: #000000; stroke-width: 0.8; stroke-linejoin: miter; stroke-linecap: square"/>
   </g>
   <g id="patch_43">
    <path d="M 258.987455 249.1 
L 417.13491 249.1 
" style="fill: none; stroke: #000000; stroke-width: 0.8; stroke-linejoin: miter; stroke-linecap: square"/>
   </g>
   <g id="patch_44">
    <path d="M 258.987455 150.93 
L 417.13491 150.93 
" style="fill: none; stroke: #000000; stroke-width: 0.8; stroke-linejoin: miter; stroke-linecap: square"/>
   </g>
   <g id="text_34">
    <!-- (D) -->
    <g transform="translate(266.894828 165.6555) scale(0.1 -0.1)">
     <use xlink:href="#DejaVuSans-28"/>
     <use xlink:href="#DejaVuSans-44" x="39.013672"/>
     <use xlink:href="#DejaVuSans-29" x="116.015625"/>
    </g>
   </g>
  </g>
 </g>
 <defs>
  <clipPath id="pf353417322">
   <rect x="46.64" y="10.8" width="158.147455" height="98.17"/>
  </clipPath>
  <clipPath id="p587686d62f">
   <rect x="258.987455" y="10.8" width="158.147455" height="98.17"/>
  </clipPath>
  <clipPath id="p48237897eb">
   <rect x="46.64" y="150.93" width="158.147455" height="98.17"/>
  </clipPath>
  <clipPath id="pf67041c67e">
   <rect x="258.987455" y="150.93" width="158.147455" height="98.17"/>
  </clipPath>
 </defs>
</svg>
